<?xml version="1.0" encoding="utf-8"?>
<!-- Generator: Adobe Illustrator 24.3.0, SVG Export Plug-In . SVG Version: 6.00 Build 0)  -->
<svg version="1.1" id="Слой_1" xmlns="http://www.w3.org/2000/svg" xmlns:xlink="http://www.w3.org/1999/xlink" x="0px" y="0px"
	 viewBox="0 0 114 23" style="enable-background:new 0 0 114 23;" xml:space="preserve">
<style type="text/css">
	.st0{fill-rule:evenodd;clip-rule:evenodd;fill:#E7BA20;}
	.st1{fill-rule:evenodd;clip-rule:evenodd;fill:#0DB04B;}
	.st2{fill-rule:evenodd;clip-rule:evenodd;fill:#FFFFFF;}
	.st3{fill:#FFFFFF;}
</style>
<g>
	<rect x="57.08" y="18.62" class="st0" width="56.97" height="3.92"/>
	<rect x="0.06" y="18.62" class="st1" width="57.03" height="3.92"/>
	<g>
		<path class="st2" d="M9.12,12.59c-2.52,0-3.96-1.14-3.96-4.69c0-3.52,1.44-4.67,3.96-4.67c1.87,0,3.15,0.65,3.67,2.41h5.09
			c-0.86-3.04-3.66-5.01-8.75-5.01c-6.26,0-9.07,2.99-9.07,7.22c0,4.38,2.81,7.33,9.07,7.33c5.07,0,7.87-1.94,8.74-5.01H12.8
			C12.26,11.96,10.99,12.59,9.12,12.59"/>
		<path class="st3" d="M46.65,12.67c-0.57-0.09-0.76-0.52-0.76-1.3c0-0.18,0-4.4,0-6.87c0-0.69,0.14-1.17,0.74-1.28
			C46.84,3.18,48.11,3,48.11,3V1.14h-8.89V3c0,0,1.28,0.17,1.49,0.21c0.6,0.11,0.74,0.59,0.74,1.28c0,2.48,0,6.69,0,6.87
			c0,0.77-0.19,1.21-0.76,1.3c-0.56,0.09-1.47,0.22-1.47,0.22l0,1.81h8.89v-1.81l0,0v0C48.11,12.88,47.21,12.75,46.65,12.67z"/>
		<path class="st2" d="M70.65,3.22C70.86,3.18,72.13,3,72.13,3V1.14h-7.85c-0.31,0-0.51,0.25-0.69,0.59
			c-0.03,0.03-1.8,3.87-2.93,6.32l-3.02-6.32c-0.16-0.34-0.37-0.59-0.69-0.59h-8.09V3c0,0,1.28,0.17,1.49,0.21
			c0.54,0.1,0.71,0.5,0.74,1.08c0,0.03,0,0.06,0,0.1c0,0,0,0,0,0.01c0,0.23,0,6.34,0,7.04c0,0.01,0,0.02,0,0.03
			c0,0.01,0,0.03,0,0.04c-0.03,0.68-0.23,1.06-0.75,1.14c-0.56,0.09-1.47,0.22-1.47,0.22v1.81h7.11v-1.81c0,0-0.91-0.13-1.47-0.22
			c-0.51-0.08-0.72-0.45-0.75-1.09c0-0.01,0-0.01,0-0.01c0-0.62,0-6.89,0-6.89s4.29,9.3,4.39,9.5c0.16,0.31,0.42,0.52,0.7,0.52h1.16
			c0.28,0,0.54-0.21,0.69-0.52c0.1-0.2,4.39-9.5,4.39-9.5s0,5.64,0,6.75c-0.01,0.74-0.2,1.16-0.76,1.24
			c-0.56,0.09-1.47,0.22-1.47,0.22v1.81h9.28v-1.81c0,0-0.91-0.13-1.47-0.22c-0.57-0.09-0.76-0.52-0.76-1.3c0-0.18,0-4.4,0-6.87
			C69.91,3.81,70.05,3.33,70.65,3.22z"/>
		<path class="st2" d="M114.06,1.14h-7.1l0,1.86c0,0,1.27,0.17,1.48,0.21c0.44,0.08,0.63,0.36,0.7,0.78
			c0.02,0.17,0.03,0.33,0.03,0.47c0,0.64,0,6.69,0,6.69l-5.85-9.43c-0.23-0.34-0.51-0.59-0.93-0.59h-7.83V3c0,0,1.28,0.17,1.49,0.21
			c0.46,0.08,0.65,0.39,0.71,0.84c0.01,0.12,0.02,0.24,0.02,0.34c0,0.18,0,6.43,0,7.06c0,0.11-0.01,0.23-0.02,0.34
			c-0.07,0.51-0.28,0.8-0.73,0.87c-0.56,0.09-1.47,0.22-1.47,0.22v1.81h7.11l0-1.81c0,0-0.91-0.13-1.47-0.22
			c-0.57-0.09-0.76-0.52-0.76-1.3c0-0.18,0-4.2,0-6.69c0.18,0.29,5.75,9.29,5.89,9.5c0.19,0.31,0.57,0.52,0.93,0.52
			c0.11,0,5.46,0,5.56,0c0.01,0,0.01,0,0.01,0s0-9.73,0-10.27c0-0.1,0-0.22,0.01-0.34c0.06-0.46,0.25-0.78,0.72-0.86
			c0.21-0.04,1.49-0.21,1.49-0.21V1.14z"/>
		<path class="st2" d="M36.94,12.64c-0.49-0.09-0.79-0.69-1.2-1.43c-0.41-0.75-4.98-9.29-4.98-9.29s-0.34-0.75-0.88-0.77
			c-0.19,0-8.67,0-8.67,0V3c0,0,1.69,0.21,1.97,0.27c0.38,0.08,0.7,0.57,0.4,1.17c-0.3,0.59-3.7,7.33-3.76,7.44
			c-0.06,0.12-0.27,0.67-0.8,0.76c-0.53,0.08-1.51,0.24-1.51,0.24v1.81h7.11v-1.81c0,0-0.74-0.11-1.22-0.18
			c-0.49-0.07-0.83-0.49-0.51-1.11c0.33-0.61,0.54-1,0.55-1.02h6.81c0.02,0.05,0.12,0.22,0.46,0.84c0.47,0.86-0.01,1.19-0.59,1.29
			c-0.57,0.09-1.21,0.19-1.21,0.19l0,1.81h9.58v-1.81C38.5,12.88,37.44,12.73,36.94,12.64z M28.98,8.15h-4.3l2.13-4.17L28.98,8.15z"
			/>
		<path class="st2" d="M92.28,12.64c-0.49-0.09-0.79-0.69-1.2-1.43c-0.41-0.75-4.98-9.29-4.98-9.29s-0.34-0.75-0.88-0.77
			c-0.19,0-8.67,0-8.67,0V3c0,0,1.69,0.21,1.97,0.27c0.38,0.08,0.7,0.57,0.4,1.17c-0.3,0.59-3.7,7.33-3.76,7.44
			c-0.06,0.12-0.27,0.67-0.8,0.76c-0.53,0.08-1.51,0.24-1.51,0.24v1.81h7.11v-1.81c0,0-0.74-0.11-1.22-0.18
			c-0.49-0.07-0.83-0.49-0.51-1.11c0.33-0.61,0.54-1,0.55-1.02h6.81c0.02,0.05,0.12,0.22,0.46,0.84c0.47,0.86-0.01,1.19-0.59,1.29
			c-0.57,0.09-1.21,0.19-1.21,0.19v1.81h9.58v-1.81C93.83,12.88,92.78,12.73,92.28,12.64z M84.31,8.15h-4.3l2.13-4.17L84.31,8.15z"
			/>
	</g>
</g>
</svg>
