<?xml version="1.0" encoding="UTF-8"?>
<!DOCTYPE svg PUBLIC "-//W3C//DTD SVG 1.1//EN" "http://www.w3.org/Graphics/SVG/1.1/DTD/svg11.dtd">
<!-- Creator: CorelDRAW 2020 (64-Bit) -->
<svg xmlns="http://www.w3.org/2000/svg" xml:space="preserve" width="212.625mm" height="213.056mm" version="1.1" style="shape-rendering:geometricPrecision; text-rendering:geometricPrecision; image-rendering:optimizeQuality; fill-rule:evenodd; clip-rule:evenodd"
viewBox="0 0 21262.5 21305.6"
 xmlns:xlink="http://www.w3.org/1999/xlink"
 xmlns:xodm="http://www.corel.com/coreldraw/odm/2003">
 <defs>
  <style type="text/css">
   <![CDATA[
    .fil0 {fill:#FEFEFE;fill-rule:nonzero}
   ]]>
  </style>
 </defs>
 <g id="Слой_x0020_1">
  <metadata id="CorelCorpID_0Corel-Layer"/>
  <path class="fil0" d="M62.74 1952.95l1443.75 2493.75c65.63,65.63 131.25,131.25 196.88,196.88l1312.5 328.13 4528.13 4528.13 525 -525 -4593.75 -4593.75c-65.63,-65.64 -131.26,-65.64 -196.88,-131.27l-1246.88 -328.12 -1181.25 -2100 1050 -1050 2100 1181.25 328.13 1246.88c0,65.63 65.63,131.25 65.63,131.25l4593.75 4593.75 525 -525 -4593.76 -4396.88 -328.13 -1312.5c0,-65.63 -65.63,-196.88 -196.88,-196.88l-2428.11 -1443.75c-131.25,-65.62 -328.13,-65.62 -393.75,65.63l-1443.75 1443.75c-131.25,65.62 -131.25,262.5 -65.63,393.75z"/>
  <polygon class="fil0" points="14762.75,7006.07 7018.99,14749.83 6493.99,14224.83 14237.75,6481.07 "/>
  <path class="fil0" d="M5640.87 15012.33c-65.63,-131.25 -196.88,-196.88 -328.13,-196.88l-2100 0c-131.25,0 -262.5,65.63 -328.13,196.88l-1050 1771.88c-65.63,131.25 -65.63,262.5 0,393.75l1050 1771.88c65.63,131.25 196.88,196.88 328.13,196.88l2100 -0.02c131.25,0 262.5,-65.63 328.13,-196.88l1050 -1771.87c65.63,-131.25 65.63,-262.5 0,-393.75l-1050 -1771.87zm-525 3346.87l-1706.25 0 -853.13 -1443.75 853.13 -1378.12 1706.25 0 853.13 1443.75 -853.13 1378.12z"/>
  <path class="fil0" d="M16994 8515.45c2362.5,0 4200,-1903.13 4265.63,-4200 0,-328.13 -65.63,-721.88 -131.25,-1050 -65.63,-196.88 -262.5,-328.13 -459.38,-262.5 -65.63,0 -131.25,65.63 -131.25,65.63l-2165.63 2165.63 -1837.5 -525.01 -590.63 -1771.88 2231.26 -2165.62c131.25,-131.25 131.25,-393.75 0,-525 -65.63,-65.63 -131.25,-65.63 -196.88,-65.63 -2231.25,-590.63 -4528.13,787.5 -5118.75,3084.38 -65.63,328.13 -131.25,721.88 -131.25,1050 0,262.5 0,525 65.63,853.13l-7678.13 7678.12c-262.5,-65.63 -525,-65.63 -853.13,-65.63 -2362.5,0 -4265.63,1903.13 -4265.63,4265.63 0,2362.5 1903.13,4265.63 4265.63,4265.63 2362.5,0 4265.63,-1903.13 4265.63,-4265.63 0,-262.5 0,-525 -65.63,-853.13l1837.5 -1837.5 787.5 787.5c131.25,131.25 393.75,131.25 525,0l196.88 -196.88c131.25,-131.25 393.75,-131.25 590.63,0 131.25,131.25 131.25,393.75 0,590.63 0,0 0,0 0,0l-196.88 196.88c-131.25,131.25 -131.25,393.75 0,525l4200 4200c1115.63,1115.63 2887.5,1115.63 4003.13,0 1115.63,-1115.63 1115.63,-2887.5 0,-4003.13 0,0 0,0 0,0l-4200 -4200c-131.25,-131.25 -393.75,-131.25 -525,0l-196.88 196.88c-131.25,131.25 -393.75,131.25 -590.63,0 -131.25,-131.25 -131.25,-393.75 0,-590.63 0,0 0,0 0,0l196.88 -196.88c131.25,-131.25 131.25,-393.75 0,-525l-787.5 -787.5 1837.5 -1837.5c262.5,-65.62 525,0.01 853.13,0.01zm1378.12 12009.38c-262.5,0 -525,-65.63 -721.88,-131.25l2756.25 -2756.25c393.75,1115.63 -131.25,2362.5 -1246.88,2756.25 -262.49,65.62 -524.99,131.25 -787.49,131.25zm-4003.12 -9187.5c-393.75,459.38 -328.13,1181.25 131.25,1575 393.75,328.13 984.38,328.13 1443.75,0l3937.5 3937.5c65.63,65.63 65.63,65.63 131.25,131.25l-3018.75 3018.75c-65.63,-65.63 -65.63,-65.63 -131.25,-131.25l-3937.5 -3937.5c393.75,-459.38 328.13,-1181.25 -131.25,-1575 -393.75,-328.13 -984.38,-328.13 -1443.75,0l-590.63 -590.63 3018.75 -3018.75 590.63 590.63zm1443.75 -3543.76l-8006.26 8006.26c-65.63,65.63 -131.25,196.88 -65.63,328.13 459.38,1903.13 -656.25,3806.25 -2559.38,4331.25 -1903.13,459.38 -3806.25,-656.25 -4331.25,-2559.38 -459.38,-1903.13 656.25,-3806.25 2559.38,-4331.25 590.63,-131.25 1181.25,-131.25 1771.88,0 131.25,0 262.5,0 328.13,-65.63l7940.63 -8071.88c65.63,-65.63 131.25,-196.88 65.63,-328.13 -459.38,-1903.13 656.25,-3806.25 2559.38,-4265.63 393.74,-65.61 721.86,-131.24 1115.61,-131.24l-1837.5 1837.5c-131.25,131.25 -196.87,262.5 -131.25,393.75l721.88 2100c65.63,131.25 131.25,196.88 196.88,196.88l2165.62 787.5c131.25,65.63 262.5,0 328.13,-65.63l1837.49 -1903.12c0,65.63 0,131.25 0,196.88 0,1968.75 -1575,3543.75 -3478.13,3543.75 -328.13,0 -590.63,-65.63 -918.75,-131.25 -65.62,-0.01 -196.87,-0.01 -262.49,131.24l0 0 0 0z"/>
  <polygon class="fil0" points="18306.5,17768.58 17781.5,18293.58 14237.75,14749.83 14762.75,14224.83 "/>
 </g>
</svg>
