<?xml version="1.0" encoding="UTF-8"?>
<!DOCTYPE svg PUBLIC "-//W3C//DTD SVG 1.1//EN" "http://www.w3.org/Graphics/SVG/1.1/DTD/svg11.dtd">
<!-- Creator: CorelDRAW 2020 (64-Bit) -->
<svg xmlns="http://www.w3.org/2000/svg" xml:space="preserve" width="164.5mm" height="126.5mm" version="1.1" style="shape-rendering:geometricPrecision; text-rendering:geometricPrecision; image-rendering:optimizeQuality; fill-rule:evenodd; clip-rule:evenodd"
viewBox="0 0 16450 12650"
 xmlns:xlink="http://www.w3.org/1999/xlink"
 xmlns:xodm="http://www.corel.com/coreldraw/odm/2003">
 <defs>
  <style type="text/css">
   <![CDATA[
    .fil0 {fill:#FEFEFE;fill-rule:nonzero}
   ]]>
  </style>
 </defs>
 <g id="Слой_x0020_1">
  <metadata id="CorelCorpID_0Corel-Layer"/>
  <path class="fil0" d="M16420.4 7033.07l-1100 -2850c-250,-675 -900,-1100 -1625,-1100l-4250 0c-125,0 -250,100 -250,250l0 5575 -525 0 0 -4450c0,0 0,0 0,0 0,0 0,0 0,0l0 -1900c0,-125 -100,-250 -250,-250l-525 0c200,-250 325,-550 325,-900 0,-775 -625,-1400 -1400,-1400 -775,0 -1400,625 -1400,1400l0 200c-200,-125 -425,-200 -675,-200 -250,0 -475,75 -675,200l0 -200c0,-775 -625,-1400 -1400,-1400 -775,0 -1400,625 -1400,1400 0,350 125,650 325,900l-525 0c-125,0 -250,100 -250,250l0 6325 -575 0c-125,0 -250,100 -250,250l0 3275c0,125 100,250 250,250l900 0c125,0 250,-100 250,-250 0,-1200 975,-2175 2175,-2175 1200,0 2175,975 2175,2175 0,125 100,250 250,250l4325 0c125,0 250,-100 250,-250 0,-1200 975,-2175 2175,-2175 475,0 900,150 1275,425 100,75 250,50 350,-50 75,-100 50,-250 -50,-350 -450,-325 -1000,-525 -1575,-525 -1375,0 -2525,1050 -2650,2400l-425 0 0 -8575 4025 0c525,0 975,325 1175,800l1075 2800 0 4975 -550 0c-50,-475 -200,-900 -475,-1300 -75,-100 -225,-125 -350,-50 -100,75 -125,225 -50,350 275,375 400,800 400,1250 0,125 100,250 250,250l1025 0c125,0 250,-100 250,-250l0 -5250c-25,-25 -25,-50 -25,-100zm-10475 -2325l2250 0 0 4200 -2250 0 0 -4200zm2250 -500l-2250 0 0 -1400 2250 0 0 1400zm-2250 -2800c0,-500 400,-900 900,-900 500,0 900,400 900,900 0,500 -400,900 -900,900l-900 0 0 -900zm-1150 500c275,0 525,175 625,425l-1250 0c100,-250 325,-425 625,-425zm-2975 -500c0,-500 400,-900 900,-900 500,0 900,400 900,900l0 900 -900 0c-475,25 -900,-400 -900,-900zm1825 1400l0 1400 -2250 0 0 -1400 2250 0zm-2250 1900l2250 0 0 1300c0,125 100,250 250,250 125,0 250,-100 250,-250l0 -3200 1325 0 0 6075 -1325 0 0 -2025c0,-125 -100,-250 -250,-250 -125,0 -250,100 -250,250l0 2050 -2250 0 0 -4200zm2250 5050c-1375,0 -2525,1050 -2650,2400l-425 0 0 -2775 8625 0 0 2775 -2925 0c-125,-1350 -1250,-2400 -2625,-2400z"/>
 </g>
</svg>
