<?xml version="1.0" encoding="UTF-8"?>
<!DOCTYPE svg PUBLIC "-//W3C//DTD SVG 1.1//EN" "http://www.w3.org/Graphics/SVG/1.1/DTD/svg11.dtd">
<!-- Creator: CorelDRAW 2020 (64-Bit) -->
<svg xmlns="http://www.w3.org/2000/svg" xml:space="preserve" width="210mm" height="182.438mm" version="1.1" style="shape-rendering:geometricPrecision; text-rendering:geometricPrecision; image-rendering:optimizeQuality; fill-rule:evenodd; clip-rule:evenodd"
viewBox="0 0 21000 18243.78"
 xmlns:xlink="http://www.w3.org/1999/xlink"
 xmlns:xodm="http://www.corel.com/coreldraw/odm/2003">
 <defs>
  <style type="text/css">
   <![CDATA[
    .fil0 {fill:#FEFEFE;fill-rule:nonzero}
   ]]>
  </style>
 </defs>
 <g id="Слой_x0020_1">
  <metadata id="CorelCorpID_0Corel-Layer"/>
  <g id="_2352058102512">
   <path class="fil0" d="M20992.87 3352.08l-1378.12 0 0 -2034.38 -9450.01 0 0 -1312.5 -2690.62 0 0 1378.13 -656.25 0 0 -1378.13 -2756.25 0 0 1378.13 -853.13 0 -1181.25 1575 0 459.38 -1378.12 -0.01 0 2034.38 1378.12 0 0 2821.88 -2034.37 984.37 0 5643.75 2034.37 0 0 656.25 1378.13 0c196.88,1509.38 1443.75,2690.63 3018.75,2690.63 1575,0 2887.5,-1181.25 3018.75,-2690.63l2756.25 0c196.88,1509.38 1443.75,2690.63 3018.75,2690.63 1575,0 2887.5,-1181.25 3018.75,-2690.63l1378.13 0 0 -10171.88 1378.12 0 0 -2034.37zm-12862.5 -2690.63l1378.12 0 0 656.25 -1378.12 0 0 -656.25zm-3412.5 0l1378.12 0 0 656.25 -1378.12 0 0 -656.25zm-3346.88 4068.75l0 -656.25 656.25 0 0 656.25 -656.25 0zm-721.87 9515.63l0 -4528.13 1378.13 -656.25 0 5184.38 -1378.13 0zm5775 3346.88c-1181.25,0 -2165.63,-853.13 -2362.5,-2034.38l656.25 0c131.25,787.5 853.13,1378.13 1640.63,1378.13 787.5,0 1509.38,-590.63 1640.63,-1378.13l656.24 0c-65.63,1181.25 -1050,2034.38 -2231.25,2034.38zm-918.75 -2034.38l1903.12 0c-131.25,393.75 -525,656.25 -984.38,656.25 -459.38,0 -787.49,-262.5 -918.74,-656.25zm9712.5 2034.38c-1181.25,0 -2165.63,-853.13 -2362.5,-2034.38l656.25 0c131.25,787.5 853.13,1378.13 1640.63,1378.13 787.5,0 1509.38,-590.63 1640.63,-1378.13l656.24 0c-65.62,1181.25 -1050,2034.38 -2231.25,2034.38zm-918.75 -2034.38l1903.13 0c-131.25,393.75 -525,656.25 -984.38,656.25 -459.38,0 -787.5,-262.5 -918.75,-656.25zm4659.38 -656.25l-16275.01 0 0 -11746.88 853.13 -1115.63 15421.88 0.01 0 12862.5zm1378.12 -10171.88l-656.25 0 0 -656.25 656.25 0 0 656.25z"/>
   <path class="fil0" d="M18302.25 2695.83l-9515.63 0 0 6103.13 9515.63 -0.01 0 -6103.12zm-721.88 2690.62l-3412.5 0 0 -2034.37 3412.5 0 0 2034.37zm-8071.88 2756.25l0 -4790.62 4068.76 0 0 2690.63 4068.75 -0.01 0 2034.38 -8137.51 0 0 65.62z"/>
   <path class="fil0" d="M11477.25 4073.95c-721.88,0 -1378.13,590.63 -1378.13,1378.13 0,787.5 590.63,1378.13 1378.13,1378.13 721.88,0 1378.13,-590.63 1378.13,-1378.13 0,-787.5 -590.63,-1378.13 -1378.13,-1378.13zm0 2034.38c-393.75,0 -656.25,-328.13 -656.25,-656.25 0,-393.75 328.13,-656.25 656.25,-656.25 328.12,0 656.25,328.13 656.25,656.25 65.62,328.12 -262.5,656.25 -656.25,656.25z"/>
   <rect class="fil0" x="14889.74" y="4073.95" width="656.25" height="656.25"/>
   <rect class="fil0" x="16267.86" y="4073.95" width="656.25" height="656.25"/>
   <rect class="fil0" x="16267.86" y="6764.58" width="656.25" height="656.25"/>
   <rect class="fil0" x="14889.74" y="6764.58" width="656.25" height="656.25"/>
   <rect class="fil0" x="13511.62" y="6764.58" width="656.25" height="656.25"/>
   <path class="fil0" d="M4914.74 7880.2c-65.63,196.88 -65.63,459.38 65.63,590.63 131.25,196.88 328.13,262.5 525,262.5 262.5,0 459.38,-131.25 590.63,-393.75l1837.5 -3675 -1378.13 0 656.25 -2034.38 -2362.5 0.01 -1246.88 4068.75 1706.25 0 -393.75 1181.24zm-393.75 -1771.87l787.5 -2690.63 984.38 0 -656.25 2034.38 1246.87 0 -1378.13 2690.63 656.25 -2034.38 -1640.62 0z"/>
   <path class="fil0" d="M12527.25 9455.21l-8137.51 0c-590.63,0 -984.38,459.38 -984.38,984.38l0 2690.63c0,590.63 459.38,984.38 984.38,984.38l8137.51 -0.02c590.63,0 984.38,-459.38 984.38,-984.38l0 -2690.63c-0.01,-524.99 -393.76,-984.36 -984.38,-984.36zm0 4068.75l-8137.51 0c-196.88,0 -328.13,-131.25 -328.13,-328.13l0 -2690.63c0,-196.88 131.25,-328.13 328.13,-328.13l8137.51 0.01c196.88,0 328.13,131.25 328.13,328.13l-0.01 328.12 -984.37 0c-590.63,0 -984.38,459.38 -984.38,984.38 0,590.63 459.38,984.38 984.38,984.38l984.37 -0.01 0 328.13c0,262.5 -131.25,393.75 -328.12,393.75zm328.12 -2034.38l0 656.25 -984.37 0c-196.88,0 -328.13,-131.25 -328.13,-328.13 0,-196.88 131.25,-328.13 328.13,-328.13l984.37 0.01z"/>
   <path class="fil0" d="M14889.75 14245.83l3412.5 0 0 -4725 -3412.5 0 0 4725zm656.25 -4068.75l2034.37 0 0 3412.5 -2034.37 0 0 -3412.5z"/>
  </g>
 </g>
</svg>
