<?xml version="1.0" encoding="UTF-8"?>
<!DOCTYPE svg PUBLIC "-//W3C//DTD SVG 1.1//EN" "http://www.w3.org/Graphics/SVG/1.1/DTD/svg11.dtd">
<!-- Creator: CorelDRAW 2020 (64-Bit) -->
<svg xmlns="http://www.w3.org/2000/svg" xml:space="preserve" width="204.636mm" height="204.637mm" version="1.1" style="shape-rendering:geometricPrecision; text-rendering:geometricPrecision; image-rendering:optimizeQuality; fill-rule:evenodd; clip-rule:evenodd"
viewBox="0 0 20463.6 20463.7"
 xmlns:xlink="http://www.w3.org/1999/xlink"
 xmlns:xodm="http://www.corel.com/coreldraw/odm/2003">
 <defs>
  <style type="text/css">
   <![CDATA[
    .fil0 {fill:#FEFEFE}
   ]]>
  </style>
 </defs>
 <g id="Слой_x0020_1">
  <metadata id="CorelCorpID_0Corel-Layer"/>
  <path class="fil0" d="M20459.22 4.36l-20463.62 0 0 10029.3 1181.25 0 0 1449.42c0,2401.46 935.84,4658.21 2631.3,6353.66 1707.77,1707.77 3942.36,2631.31 6353.65,2631.31 2367.15,0 4680.31,-957.97 6353.64,-2631.31 1707.77,-1707.76 2631.34,-3942.36 2631.3,-6353.66l-0.02 -1449.42 1312.5 0 0 -10029.3zm-14032.39 15771.35l0 27.95 -265.6 -273.52 -292.49 -279.3 29.68 0c-937.06,-1057.21 -1451.66,-2413.08 -1451.66,-3833.39 0,-1391.09 493.64,-2720.39 1394.37,-3767.78l-27.57 0 310.14 -306.26 303.13 -312.16 0 28.23c1051.77,-918.25 2394.4,-1422.7 3800.59,-1422.7 1406.18,0 2748.81,504.45 3800.57,1422.69l0 -28.23 303.13 312.16 310.15 306.27 -27.57 0c900.73,1047.39 1394.37,2376.69 1394.37,3767.78 0,1420.3 -514.6,2776.18 -1451.66,3833.39l29.66 0 -292.43 279.26 -265.65 273.57 0 -27.94c-1052.97,919.12 -2395.61,1422.39 -3800.57,1422.39 -1404.97,0 -2747.59,-503.3 -3800.59,-1422.41zm0 -524.87l3379.68 0 0 623.44 841.79 0 0 -623.44 3379.69 0 0 -3379.69 623.43 0 0 -841.8 -623.43 0 0 -3379.68 -3379.69 0 0 -623.44 -841.79 0 0 623.44 -3379.68 0 0 3379.7 -951.56 0 0 841.79 951.56 0.01 0 3379.67zm13190.6 -12818.35l-9001.94 0 0 -1651.96 9001.94 0 0 1651.96zm-9843.73 -1651.96l0 1651.96 -9001.93 0 0 -1651.96 9001.93 0zm8662.49 10636.92c0,4508.65 -3700.12,8208.79 -8208.77,8208.79 -4539.74,0 -8208.79,-3665.55 -8208.79,-8208.79l0 -1383.79 1754.13 0 -39.31 235.84c-67.88,407.27 -128.49,798.84 -128.49,1213.58 0,3628.83 2928,6556.84 6556.83,6556.84 3628.83,0 6556.82,-2928.02 6556.82,-6556.84 0,-398.42 -63.01,-820.67 -128.49,-1213.59l-39.31 -235.83 1885.38 0 0 1383.79zm-2111.33 -2390.24c-987.48,-2525.88 -3374.89,-4166.6 -6097.44,-4166.6 -2735.03,0 -5131.87,1655.81 -6110.95,4201.42l-49.94 129.83 -3294.76 0 0 -5917.58 18845.66 0 0 5983.21 -3292.57 0 0 -230.28zm-6097.44 4090.83c938.2,0 1700.58,-762.39 1700.58,-1700.59 0,-946.9 -771.99,-1634.96 -1700.58,-1634.96 -938.2,0 -1700.59,762.39 -1700.59,1700.59 0,946.91 771.99,1634.96 1700.59,1634.96zm0 -2493.75c472.96,0 858.78,385.3 858.78,858.79 0,505.64 -353.14,858.79 -858.78,858.79 -505.64,0 -858.79,-353.15 -858.79,-858.79 0,-505.65 353.14,-858.79 858.79,-858.79zm-2789.08 -1963.1l5578.12 0 0 5578.13 -5578.12 0 0 -5578.13z"/>
 </g>
</svg>
