<?xml version="1.0" encoding="UTF-8"?>
<!DOCTYPE svg PUBLIC "-//W3C//DTD SVG 1.1//EN" "http://www.w3.org/Graphics/SVG/1.1/DTD/svg11.dtd">
<!-- Creator: CorelDRAW 2020 (64-Bit) -->
<svg xmlns="http://www.w3.org/2000/svg" xml:space="preserve" width="13.229mm" height="13.494mm" version="1.1" style="shape-rendering:geometricPrecision; text-rendering:geometricPrecision; image-rendering:optimizeQuality; fill-rule:evenodd; clip-rule:evenodd"
viewBox="0 0 1322.9 1349.4"
 xmlns:xlink="http://www.w3.org/1999/xlink"
 xmlns:xodm="http://www.corel.com/coreldraw/odm/2003">
 <defs>
  <style type="text/css">
   <![CDATA[
    .fil0 {fill:#FEFEFE;fill-rule:nonzero}
   ]]>
  </style>
 </defs>
 <g id="Слой_x0020_1">
  <metadata id="CorelCorpID_0Corel-Layer"/>
  <path id="Shape" class="fil0" d="M1271.75 793.02l-20.44 0 0 -181.89c0,-28.8 -14.5,-54.29 -36.65,-69.78l0 -24.77c0,-35.92 -29.58,-65.15 -65.94,-65.15l-15.26 0 58.39 -84.65c19.57,-28.37 12.13,-67.19 -16.59,-86.53l-396.17 -266.77c-13.91,-9.37 -30.68,-12.82 -47.22,-9.72 -16.54,3.09 -30.88,12.37 -40.36,26.12l-341.94 495.79 -95.16 0 22.96 -229.63c0.26,-2.59 1.96,-4.83 4.34,-5.71 29.57,-11.02 55.21,-31.6 72.17,-57.94 1.34,-2.08 3.86,-3.26 6.46,-3l149.25 14.57c10.7,1.02 20.22,-6.68 21.28,-17.25 1.05,-10.57 -6.76,-19.98 -17.45,-21.02l-149.25 -14.57c-17.32,-1.68 -33.85,6.21 -43.13,20.62 -12.47,19.37 -31.32,34.5 -53.06,42.6 -16.37,6.1 -27.61,20.63 -29.34,37.92l-23.33 233.41 -24.82 0 36.31 -363.18c1.31,-13.07 13.12,-22.68 26.36,-21.37l301.6 29.44c10.69,1.02 20.22,-6.68 21.28,-17.24 1.05,-10.57 -6.76,-19.98 -17.46,-21.03l-301.59 -29.44c-34.58,-3.37 -65.5,21.68 -68.92,55.86l-29.27 292.72 -49.83 0c-36.36,0 -65.94,29.23 -65.94,65.15l0 16.89c-29.74,13.53 -50.45,43.24 -50.45,77.66l0 655.43c0,47.13 38.8,85.46 86.49,85.46l1085.76 0c47.69,0 86.48,-38.33 86.48,-85.46l0 -181.88 20.44 0c24.12,0 43.75,-19.39 43.75,-43.22l0 -205.22c0,-23.83 -19.63,-43.22 -43.75,-43.22zm-123.03 -303.13c14.9,0 27.02,11.97 27.02,26.69l0 9.8c-3.58,-0.45 -7.21,-0.7 -10.91,-0.7l-82.57 0 24.68 -35.79 41.78 0zm-425.05 -438.36c3.63,-5.26 9.11,-8.81 15.44,-9.99 1.51,-0.28 3.03,-0.43 4.54,-0.43 4.79,0 9.47,1.42 13.52,4.15l396.17 266.76c10.99,7.4 13.84,22.25 6.35,33.1l-124.52 180.55 -29.89 0 61.05 -88.52c9.91,-14.36 10.72,-32.63 2.13,-47.68 -11.42,-20.01 -16.05,-43.56 -13.04,-66.33 2.24,-16.94 -5.3,-33.47 -19.68,-43.15l-205.38 -138.29c-14.38,-9.69 -32.72,-10.58 -47.85,-2.32 -20.34,11.1 -44.22,15.45 -67.24,12.27 -17.07,-2.37 -34.38,5.25 -44.14,19.39l-244.58 354.63 -29.89 0 327.01 -474.14zm8.57 326.51c-84.74,0 -154.3,65.29 -159.97,147.63l-98.63 0 229.65 -332.98c0,0 0,0 0,0 1.3,-1.89 3.47,-3.02 5.69,-3.02 0.3,0 0.59,0.02 0.89,0.06 31.31,4.33 63.78,-1.59 91.45,-16.68 2.17,-1.2 4.97,-1.02 7.12,0.43l205.38 138.29c2.15,1.45 3.33,3.96 3.01,6.39 -4.1,30.97 2.2,63 17.73,90.2 1.25,2.19 1.1,4.99 -0.38,7.13l-75.99 110.18 -65.97 0c-5.67,-82.34 -75.23,-147.63 -159.98,-147.63zm120.96 147.63l-241.91 0c5.58,-61.11 57.68,-109.17 120.95,-109.17 63.28,0 115.39,48.06 120.96,109.17zm-771.25 -9.09c0,-14.72 12.12,-26.7 27.02,-26.7l45.99 0 -3.58 35.79 -69.43 0 0 -9.09zm-50.45 94.55c0,-25.92 21.34,-47.01 47.57,-47.01l1085.76 0c26.23,0 47.57,21.09 47.57,47.01l0 53.35 -1180.9 0 0 -53.35zm1180.9 655.43c0,25.92 -21.34,47.01 -47.57,47.01l-1085.76 0c-26.23,0 -47.57,-21.09 -47.57,-47.01l0 -53.35 104.93 0c10.75,0 19.46,-8.61 19.46,-19.22 0,-10.62 -8.71,-19.23 -19.46,-19.23l-104.93 0 0 -471.82 1180.9 0 0 90.08 -185.02 0 0 0c-58.3,0 -108.8,33.57 -132.76,82.18 -0.08,0.16 -0.17,0.32 -0.25,0.48 -0.21,0.41 -0.38,0.84 -0.58,1.26 -2.85,5.99 -5.34,12.19 -7.35,18.59 -0.01,0.02 -0.02,0.04 -0.02,0.05 -4.31,13.68 -6.63,28.21 -6.63,43.27 0,80.41 66.21,145.83 147.58,145.83l0.01 0 185.01 0 0 90.08 -951.36 0c-10.75,0 -19.46,8.61 -19.46,19.23 0,10.61 8.72,19.22 19.46,19.22l951.37 0 0 53.35zm64.18 -225.11c0,2.63 -2.16,4.77 -4.83,4.77l-244.37 0c-41.19,0 -77.11,-22.76 -95.53,-56.23 -0.84,-1.52 -1.64,-3.07 -2.41,-4.63 -1.53,-3.13 -2.9,-6.34 -4.12,-9.63 -4.28,-11.51 -6.61,-23.93 -6.61,-36.88 0,-12.95 2.34,-25.38 6.61,-36.88 1.22,-3.29 2.6,-6.5 4.12,-9.63 0.77,-1.57 1.57,-3.11 2.41,-4.63 18.42,-33.47 54.34,-56.24 95.53,-56.24l244.37 0c2.66,0 4.83,2.14 4.83,4.77l0 205.21zm-247.12 -182.13c-43.77,0 -79.38,35.6 -79.38,79.37 0,43.77 35.61,79.38 79.38,79.38 43.76,0 79.37,-35.61 79.37,-79.38 0,-43.77 -35.61,-79.37 -79.37,-79.37zm0 119.62c-22.2,0 -40.25,-18.06 -40.25,-40.25 0,-22.19 18.05,-40.25 40.25,-40.25 22.19,0 40.24,18.06 40.24,40.25 0,22.19 -18.05,40.25 -40.24,40.25z"/>
 </g>
</svg>
