<?xml version="1.0" encoding="UTF-8"?>
<!DOCTYPE svg PUBLIC "-//W3C//DTD SVG 1.1//EN" "http://www.w3.org/Graphics/SVG/1.1/DTD/svg11.dtd">
<!-- Creator: CorelDRAW 2020 (64-Bit) -->
<svg xmlns="http://www.w3.org/2000/svg" xml:space="preserve" width="13.291mm" height="12.321mm" version="1.1" style="shape-rendering:geometricPrecision; text-rendering:geometricPrecision; image-rendering:optimizeQuality; fill-rule:evenodd; clip-rule:evenodd"
viewBox="0 0 1329.1 1232.1"
 xmlns:xlink="http://www.w3.org/1999/xlink"
 xmlns:xodm="http://www.corel.com/coreldraw/odm/2003">
 <defs>
  <style type="text/css">
   <![CDATA[
    .fil0 {fill:#FEFEFE;fill-rule:nonzero}
   ]]>
  </style>
 </defs>
 <g id="Слой_x0020_1">
  <metadata id="CorelCorpID_0Corel-Layer"/>
  <path class="fil0" d="M526.55 300.28l0 24.1 -136.02 0c-0.19,-6.07 0.81,-11.91 2.97,-17.55 3.49,-9.23 9.08,-18.37 16.78,-27.31 7.7,-8.95 18.7,-19.28 33,-30.99 22.24,-18.32 37.36,-32.81 45.25,-43.53 7.94,-10.71 11.91,-20.85 11.91,-30.41 0,-10 -3.59,-18.42 -10.76,-25.3 -7.18,-6.84 -16.55,-10.29 -28.08,-10.29 -12.19,0 -21.95,3.64 -29.27,10.91 -7.32,7.22 -11,17.26 -11.09,30.13l-25.83 -2.58c1.77,-19.33 8.47,-34.06 20.04,-44.2 11.62,-10.13 27.17,-15.2 46.73,-15.2 19.7,0 35.34,5.45 46.82,16.4 11.52,10.95 17.26,24.54 17.26,40.7 0,8.23 -1.67,16.31 -5.07,24.25 -3.34,7.99 -8.94,16.36 -16.74,25.16 -7.84,8.75 -20.8,20.85 -38.88,36.15 -15.16,12.72 -24.92,21.33 -29.22,25.88 -4.3,4.54 -7.84,9.08 -10.67,13.68l100.87 0zm113.93 -124.83l85.8 0 0 20.95 -60.55 0 0 127.98 -25.25 0 0 -148.93zm88.86 74.46c0,-27.5 7.65,-47.87 23,-61.12 12.77,-11 28.41,-16.5 46.83,-16.5 20.42,0 37.16,6.7 50.17,20.09 12.96,13.34 19.46,31.85 19.46,55.43 0,19.13 -2.87,34.15 -8.61,45.1 -5.74,10.95 -14.11,19.47 -25.11,25.54 -10.95,6.07 -22.95,9.09 -35.91,9.09 -20.86,0 -37.69,-6.65 -50.56,-19.99 -12.86,-13.35 -19.27,-32.57 -19.27,-57.64zm25.83 0.05c0,19.04 4.16,33.29 12.48,42.71 8.37,9.47 18.84,14.21 31.52,14.21 12.53,0 22.95,-4.74 31.32,-14.26 8.32,-9.51 12.49,-24.01 12.49,-43.47 0,-18.37 -4.21,-32.28 -12.58,-41.71 -8.37,-9.47 -18.8,-14.2 -31.23,-14.2 -12.68,0 -23.15,4.69 -31.52,14.11 -8.32,9.42 -12.48,23.62 -12.48,42.61zm156.73 -74.51l103.88 0 0 128.27 16.07 0 0 62.84 -20.66 0 0 -42.18 -117.37 0 0 42.18 -20.66 0 0 -62.84 13.2 0c17.79,-24.15 26.3,-66.91 25.54,-128.27zm20.95 20.95c-1.87,48.35 -9.33,84.12 -22.39,107.32l80.07 0 0 -107.32 -57.68 0zm223.97 109.33c-9.38,7.98 -18.41,13.58 -27.07,16.88 -8.66,3.3 -17.94,4.93 -27.88,4.93 -16.36,0 -28.94,-3.97 -37.74,-11.96 -8.8,-7.94 -13.2,-18.13 -13.2,-30.51 0,-7.27 1.67,-13.92 4.97,-19.95 3.35,-6.02 7.7,-10.81 13.06,-14.44 5.41,-3.64 11.43,-6.41 18.18,-8.27 4.97,-1.3 12.48,-2.54 22.47,-3.78 20.38,-2.39 35.44,-5.31 45.06,-8.66 0.09,-3.44 0.14,-5.64 0.14,-6.55 0,-10.24 -2.39,-17.46 -7.17,-21.67 -6.46,-5.69 -16.07,-8.51 -28.8,-8.51 -11.9,0 -20.7,2.1 -26.35,6.26 -5.69,4.17 -9.85,11.53 -12.58,22.15l-24.68 -3.45c2.25,-10.56 5.94,-19.13 11.1,-25.63 5.17,-6.5 12.63,-11.48 22.38,-15.02 9.71,-3.49 21.05,-5.26 33.86,-5.26 12.73,0 23.11,1.48 31.09,4.5 7.94,3.01 13.82,6.74 17.55,11.28 3.74,4.55 6.37,10.29 7.9,17.22 0.81,4.31 1.24,12.05 1.24,23.2l0 33.48c0,23.38 0.53,38.16 1.58,44.43 1,6.26 3.11,12.24 6.17,17.98l-26.4 0c-2.54,-5.31 -4.16,-11.53 -4.88,-18.65zm-2.01 -55.96c-9.18,3.73 -22.96,6.89 -41.32,9.47 -10.43,1.48 -17.79,3.16 -22.1,5.02 -4.3,1.87 -7.6,4.59 -9.95,8.13 -2.34,3.59 -3.54,7.56 -3.54,11.96 0,6.65 2.54,12.24 7.66,16.69 5.11,4.45 12.58,6.7 22.38,6.7 9.71,0 18.37,-2.11 25.97,-6.36 7.56,-4.21 13.15,-10 16.69,-17.32 2.73,-5.69 4.07,-14.06 4.07,-25.11l0.14 -9.18zm-761.21 850.52l773.19 0c10.76,0 19.5,-8.26 19.5,-18.46 0,-10.2 -8.74,-18.46 -19.5,-18.46l-773.19 0c-10.77,0 -19.51,8.26 -19.51,18.46 0,10.2 8.74,18.46 19.51,18.46zm0 -161.52l773.19 0c10.76,0 19.5,-8.26 19.5,-18.46 0,-10.19 -8.74,-18.46 -19.5,-18.46l-773.19 0c-10.77,0 -19.51,8.27 -19.51,18.46 0,10.2 8.74,18.46 19.51,18.46zm410.73 -161.51l362.43 0c10.78,0 19.53,-8.27 19.53,-18.46 0,-10.2 -8.75,-18.46 -19.53,-18.46l-362.43 0c-10.78,0 -19.52,8.26 -19.52,18.46 0,10.19 8.74,18.46 19.52,18.46zm0 -161.52l362.43 0c10.78,0 19.53,-8.27 19.53,-18.46 0,-10.2 -8.75,-18.46 -19.53,-18.46l-362.43 0c-10.78,0 -19.52,8.26 -19.52,18.46 0,10.19 8.74,18.46 19.52,18.46zm0 -156.9l362.43 0c10.78,0 19.53,-8.26 19.53,-18.46 0,-10.2 -8.75,-18.46 -19.53,-18.46l-362.43 0c-10.78,0 -19.52,8.26 -19.52,18.46 0,10.2 8.74,18.46 19.52,18.46zm-384.07 323.03l267.62 0c25.45,0 46.16,-20.71 46.16,-46.17l0 -267.61c0,-25.46 -20.71,-46.17 -46.16,-46.17l-267.62 0c-25.45,0 -46.17,20.71 -46.17,46.17l0 267.61c0,25.46 20.72,46.17 46.17,46.17zm-7.14 -313.78c0,-3.94 3.2,-7.14 7.14,-7.14l267.62 0c3.93,0 7.14,3.2 7.14,7.14l0 267.61c0,3.94 -3.21,7.15 -7.14,7.15l-267.62 0c-3.94,0 -7.14,-3.21 -7.14,-7.15l0 -267.61zm844.53 -466.11l-972.38 0c-36.99,0 -67.08,30.15 -67.08,67.21l0 102.01 -155.42 0c-36.99,0 -67.09,30.15 -67.09,67.21l0 864.76c0,71.87 58.14,130.4 129.78,130.92l0.27 0c0.23,0.01 0.44,0.03 0.68,0.03l688.68 0c10.75,0 19.47,-8.73 19.47,-19.51 0,-10.76 -8.72,-19.5 -19.47,-19.5l-595.69 0c23.31,-23.66 37.73,-56.14 37.73,-91.94l0 -456.09c0,-10.77 -8.72,-19.5 -19.47,-19.5 -10.76,0 -19.47,8.73 -19.47,19.5l0 456.09c0,50.52 -40.9,91.65 -91.29,91.93 -0.16,0 -0.32,-0.02 -0.49,-0.02 -50.61,-0.01 -91.79,-41.24 -91.79,-91.91l0 -864.76c0,-15.54 12.63,-28.2 28.15,-28.2l155.42 0 0 364.06c0,10.77 8.71,19.5 19.47,19.5 10.75,0 19.47,-8.73 19.47,-19.5l0 -505.08c0,-15.56 12.62,-28.2 28.14,-28.2l972.38 0c15.52,0 28.14,12.64 28.14,28.2l0 1033.98c0,50.7 -41.17,91.94 -91.78,91.94l-306.23 0c-10.76,0 -19.47,8.74 -19.47,19.5 0,10.78 8.71,19.51 19.47,19.51l306.23 0c72.08,0 130.72,-58.75 130.72,-130.95l0 -1033.98c0,-37.06 -30.09,-67.21 -67.08,-67.21z"/>
 </g>
</svg>
